<svg width="500" height="106" viewBox="0 0 500 106" fill="none" xmlns="http://www.w3.org/2000/svg">
    <g clip-path="url(#clip0)">
        <path d="M493.22 22.9592C494.115 22.9729 495.002 22.8008 495.827 22.4538C496.651 22.1069 497.395 21.5925 498.011 20.9434C498.656 20.3314 499.166 19.5915 499.508 18.7711C499.851 17.9506 500.018 17.0677 500 16.1788V9.39832C500.016 8.50195 499.848 7.61185 499.506 6.78324C499.163 5.95462 498.655 5.20516 498.011 4.58133C497.394 3.93647 496.649 3.42843 495.824 3.09017C494.999 2.75191 494.112 2.591 493.22 2.61788H410.131C409.559 2.61255 408.988 2.67405 408.43 2.80114C409.631 3.07083 410.731 3.67957 411.597 4.55515C412.245 5.18261 412.758 5.93584 413.105 6.76866C413.451 7.60147 413.624 8.49632 413.613 9.39832V16.1788C413.612 17.0673 413.433 17.9468 413.087 18.7652C412.741 19.5835 412.234 20.3242 411.597 20.9434C410.948 21.5705 410.182 22.0624 409.341 22.3905C408.501 22.7185 407.604 22.8763 406.702 22.8545H403.272V99.0101C403.262 99.9074 403.429 100.798 403.762 101.631C404.096 102.464 404.591 103.223 405.218 103.865C405.845 104.507 406.593 105.018 407.418 105.371C408.243 105.724 409.129 105.911 410.026 105.921H492.854C493.753 105.935 494.647 105.765 495.479 105.423C496.312 105.081 497.066 104.574 497.697 103.932C498.343 103.314 498.856 102.57 499.202 101.746C499.549 100.922 499.723 100.035 499.712 99.141V92.2296C499.723 91.3464 499.558 90.4698 499.225 89.6516C498.892 88.8333 498.399 88.0899 497.775 87.465C497.166 86.8418 496.436 86.3488 495.631 86.0158C494.825 85.6828 493.961 85.5167 493.089 85.5277H430.445V64.244H484.503C486.281 64.2511 487.989 63.5569 489.259 62.3121C490.528 61.0672 491.255 59.3721 491.283 57.5944V50.7093C491.283 48.911 490.569 47.1863 489.297 45.9148C488.026 44.6432 486.301 43.9288 484.503 43.9288H430.445V22.9854L493.22 22.9592Z" fill="#00334E"/>
        <path d="M411.597 20.9434C412.234 20.3242 412.741 19.5835 413.087 18.7652C413.433 17.9468 413.612 17.0674 413.613 16.1788V9.39833C413.637 8.49381 413.478 7.59373 413.145 6.75237C412.812 5.911 412.312 5.14577 411.675 4.5028C410.777 3.59986 409.628 2.98861 408.377 2.74879C407.81 2.62399 407.23 2.56253 406.649 2.56553H315.026C315.826 2.59045 316.612 2.78269 317.334 3.12988C318.055 3.47706 318.696 3.9715 319.215 4.58134C320.368 5.86678 320.995 7.54026 320.969 9.26744V22.9592H347.382V99.298C347.368 100.176 347.535 101.048 347.873 101.859C348.21 102.67 348.712 103.402 349.346 104.01C349.978 104.629 350.727 105.117 351.55 105.445C352.372 105.773 353.251 105.935 354.136 105.921H367.775C368.66 105.935 369.539 105.773 370.361 105.445C371.184 105.117 371.933 104.629 372.565 104.01C373.203 103.403 373.708 102.672 374.05 101.861C374.393 101.05 374.564 100.178 374.555 99.298V22.9592H406.702C407.611 22.9702 408.514 22.7974 409.355 22.451C410.196 22.1046 410.959 21.5918 411.597 20.9434Z" fill="#00334E"/>
        <path d="M319.11 4.58137C318.592 3.97472 317.95 3.48573 317.228 3.14712C316.505 2.80851 315.719 2.62808 314.921 2.61792H275.811C257.731 2.61792 244.572 6.85024 236.335 15.3149V99.0886C236.356 100.001 236.19 100.909 235.848 101.755C235.506 102.601 234.995 103.369 234.345 104.01L233.874 104.429L234.372 104.089C235.999 102.904 237.15 101.177 237.618 99.2195L242.461 81.1558H293.691V99.2195C293.66 100.079 293.798 100.937 294.098 101.743C294.398 102.549 294.854 103.288 295.44 103.918C296.026 104.547 296.73 105.055 297.513 105.413C298.295 105.77 299.14 105.97 300 106H314.136C315.025 106.016 315.909 105.855 316.736 105.527C317.563 105.199 318.316 104.71 318.953 104.089C319.601 103.489 320.116 102.76 320.463 101.948C320.81 101.136 320.983 100.26 320.968 99.3766V9.26746C320.977 7.52408 320.311 5.84497 319.11 4.58137ZM293.691 60.5789H247.775L254.136 37.4364C255.208 33.2664 257.652 29.5781 261.073 26.9647C264.546 24.3468 268.793 22.9646 273.141 23.0378H293.691V60.5789Z" fill="#00334E"/>
        <path d="M234.424 4.58134C233.818 3.93787 233.082 3.43019 232.265 3.09175C231.449 2.75332 230.57 2.59182 229.686 2.61789H200.367C198.441 2.66592 196.591 3.37807 195.131 4.6337C193.538 5.85522 192.359 7.5368 191.754 9.45069L170.367 70.9459L149.215 9.39833C148.609 7.48445 147.431 5.80286 145.838 4.58134C144.377 3.32571 142.528 2.61356 140.602 2.56553H111.073C110.181 2.54065 109.294 2.70775 108.472 3.05554C107.65 3.40332 106.912 3.92366 106.309 4.58134C105.662 5.23403 105.154 6.01155 104.816 6.86663C104.479 7.72172 104.319 8.63651 104.346 9.55541V15.2363C111.92 23.4043 115.698 35.4729 115.681 51.4423C116.049 59.6651 114.109 67.8269 110.079 75.0037C108.349 77.8908 106.434 80.6629 104.346 83.3025C103.456 84.4544 102.539 85.5801 101.728 86.6534H124.084C124.96 86.6361 125.832 86.7916 126.649 87.1112C127.465 87.4307 128.211 87.908 128.843 88.5158C129.475 89.1236 129.981 89.8499 130.332 90.6533C130.683 91.4568 130.873 92.3215 130.89 93.1983V99.1672C130.914 100.49 130.53 101.788 129.791 102.885C130.552 101.739 130.936 100.385 130.89 99.0101V28.5878L156.335 99.4813C157.089 101.3 158.319 102.883 159.895 104.063C161.376 105.27 163.221 105.943 165.131 105.974H175.393C177.3 105.929 179.14 105.257 180.628 104.063C182.291 102.927 183.59 101.337 184.372 99.4813L209.791 28.6401V99.6122C209.889 101.261 210.587 102.816 211.754 103.984C212.373 104.627 213.118 105.136 213.942 105.478C214.766 105.821 215.652 105.989 216.545 105.974H229.634C231.218 106.004 232.758 105.444 233.953 104.403L234.424 103.984C235.073 103.343 235.585 102.575 235.927 101.729C236.269 100.882 236.435 99.9751 236.414 99.0624V9.55541C236.428 8.63582 236.26 7.7225 235.918 6.86857C235.577 6.01465 235.069 5.23716 234.424 4.58134Z" fill="#00334E"/>
        <path d="M109.555 105.921H124.084C125.034 105.93 125.977 105.753 126.859 105.398C128.061 104.861 129.083 103.986 129.798 102.88C130.514 101.774 130.893 100.484 130.89 99.1672V93.2769C130.9 92.4002 130.738 91.53 130.412 90.7161C130.086 89.9022 129.603 89.1605 128.99 88.5333C128.378 87.9061 127.648 87.4057 126.842 87.0607C126.036 86.7157 125.17 86.5328 124.293 86.5226H101.597C102.544 85.466 103.419 84.3465 104.215 83.1716C106.303 80.532 108.218 77.7599 109.948 74.8728C113.978 67.696 115.918 59.5342 115.55 51.3114C115.55 35.3421 111.771 23.2734 104.215 15.1055C103.22 13.997 102.143 12.9644 100.995 12.0163C91.3787 4.00543 77.0506 0 58.0104 0H56.6754C30.4973 0.994813 27.5392 26.8076 27.2251 46.5992V49.3742C27.7225 40.1329 30.1309 32.9859 34.5026 27.9333C39.424 22.2262 47.2775 19.3727 58.0628 19.3727C68.8481 19.3727 76.6404 21.9906 81.4397 27.2265C86.2914 32.4623 88.7085 40.5168 88.6911 51.39C88.6911 74.5848 78.6038 86.2695 58.4293 86.4441H62.8272C71.6347 86.1732 80.4199 87.4764 88.7696 90.2924C93.9702 92.211 98.7978 95.0191 103.037 98.5912C104.483 99.8193 105.831 101.159 107.068 102.597C107.869 103.516 108.621 104.477 109.319 105.476L109.581 105.843" fill="#5588A3"/>
        <path d="M109.555 105.921L109.293 105.555C108.595 104.555 107.843 103.594 107.042 102.675C105.804 101.237 104.457 99.8979 103.01 98.6698C98.7716 95.0976 93.9441 92.2895 88.7435 90.3709C80.4108 87.5108 71.634 86.1632 62.8272 86.3917H57.9581C47.2775 86.3917 39.6335 83.5643 34.5812 77.8572C29.5288 72.1502 27.1728 63.8251 27.1728 52.856V46.6253C27.5393 26.8338 30.5236 1.02099 56.6754 0H52.5393L50.1832 0.130897H49.4503L46.8325 0.36651H46.4136L43.7958 0.706841H43.6387C33.0965 1.77785 23.0924 5.88881 14.8429 12.5399C4.92147 21.2838 0 34.7138 0 52.9607V57.8301C0.837696 73.5377 5.68063 85.3969 14.6597 93.1198C17.2809 95.3765 20.1637 97.3101 23.2461 98.8792C32.3393 103.25 42.2686 105.608 52.356 105.791H109.555V105.921Z" fill="#00334E"/>
    </g>
    <defs>
        <clipPath id="clip0">
            <rect width="500" height="106" fill="white"/>
        </clipPath>
    </defs>
</svg>
