<svg width="14" height="14" viewBox="0 0 14 14" fill="none" xmlns="http://www.w3.org/2000/svg">
    <path d="M7.37642 3.26465H6.62486C6.55611 3.26465 6.49986 3.3209 6.49986 3.38965V7.69121C6.49986 7.73184 6.51861 7.76934 6.55142 7.79278L9.13423 9.67871C9.19048 9.71934 9.26861 9.7084 9.30923 9.65215L9.75611 9.04278C9.7983 8.98496 9.7858 8.90684 9.72955 8.86778L7.50142 7.25684V3.38965C7.50142 3.3209 7.44517 3.26465 7.37642 3.26465ZM10.8108 4.43965L13.2608 5.03809C13.3389 5.05684 13.4155 4.99746 13.4155 4.91778L13.428 2.39434C13.428 2.28965 13.3077 2.23028 13.2264 2.2959L10.7639 4.21934C10.7453 4.23374 10.7311 4.25309 10.723 4.27519C10.7149 4.29728 10.7132 4.32121 10.7181 4.34422C10.723 4.36724 10.7343 4.3884 10.7507 4.40528C10.7671 4.42216 10.7879 4.43408 10.8108 4.43965ZM13.4311 9.14434L12.5452 8.83965C12.5143 8.82906 12.4805 8.83098 12.451 8.845C12.4215 8.85901 12.3987 8.88401 12.3874 8.91465C12.3577 8.99434 12.3264 9.07246 12.2936 9.15059C12.0155 9.8084 11.617 10.4006 11.1077 10.9084C10.604 11.4137 10.007 11.8164 9.34986 12.0943C8.66912 12.3821 7.93738 12.5299 7.1983 12.5287C6.45142 12.5287 5.72798 12.3834 5.04673 12.0943C4.38961 11.8164 3.79264 11.4137 3.28892 10.9084C2.78111 10.4006 2.38267 9.8084 2.10298 9.15059C1.81676 8.46947 1.67012 7.73784 1.67173 6.99903C1.67173 6.25215 1.81705 5.52715 2.10611 4.8459C2.38423 4.18809 2.78267 3.5959 3.29205 3.08809C3.79577 2.58281 4.39273 2.18005 5.04986 1.90215C5.72798 1.61309 6.45298 1.46778 7.19986 1.46778C7.94673 1.46778 8.67017 1.61309 9.35142 1.90215C10.0085 2.18005 10.6055 2.58281 11.1092 3.08809C11.2686 3.24903 11.4186 3.41621 11.5561 3.59278L12.4905 2.86153C11.2608 1.28965 9.34674 0.278713 7.19673 0.280275C3.45298 0.281838 0.446734 3.32246 0.484234 7.06778C0.521734 10.7475 3.51392 13.7178 7.19986 13.7178C10.0983 13.7178 12.567 11.8803 13.5077 9.30684C13.5311 9.24121 13.4967 9.16778 13.4311 9.14434Z" fill="#00334E"/>
</svg>
