<svg width="14" height="13" viewBox="0 0 14 13" fill="none" xmlns="http://www.w3.org/2000/svg">
    <path d="M13.1892 4.5183L9.22203 3.94174L7.44859 0.346429C7.40015 0.247992 7.32046 0.168304 7.22203 0.119867C6.97515 -0.00200837 6.67515 0.0995541 6.55171 0.346429L4.77828 3.94174L0.811089 4.5183C0.701714 4.53393 0.601714 4.58549 0.525151 4.66362C0.432592 4.75875 0.381587 4.88674 0.383345 5.01946C0.385103 5.15218 0.439479 5.27878 0.534526 5.37143L3.40484 8.16987L2.72671 12.1214C2.71081 12.2134 2.72098 12.3079 2.75608 12.3943C2.79117 12.4808 2.84978 12.5556 2.92526 12.6105C3.00074 12.6653 3.09007 12.6978 3.18312 12.7045C3.27617 12.7111 3.36922 12.6915 3.45171 12.648L7.00015 10.7824L10.5486 12.648C10.6455 12.6996 10.758 12.7167 10.8658 12.698C11.1377 12.6511 11.3205 12.3933 11.2736 12.1214L10.5955 8.16987L13.4658 5.37143C13.5439 5.29487 13.5955 5.19487 13.6111 5.08549C13.6533 4.81205 13.4627 4.55893 13.1892 4.5183ZM9.38765 7.77612L9.95172 11.0621L7.00015 9.51205L4.04859 11.0636L4.61265 7.77768L2.22515 5.44955L5.52515 4.96987L7.00015 1.9808L8.47515 4.96987L11.7752 5.44955L9.38765 7.77612Z" fill="#00334E"/>
</svg>
