<svg width="12" height="14" viewBox="0 0 12 14" fill="none" xmlns="http://www.w3.org/2000/svg">
    <path d="M11.0323 6.33332C10.729 5.65059 10.288 5.03781 9.73701 4.53332L9.28232 4.11613C9.26689 4.10235 9.24831 4.09258 9.22821 4.08766C9.20811 4.08274 9.18711 4.08283 9.16706 4.08792C9.147 4.09301 9.1285 4.10295 9.11319 4.11686C9.09787 4.13077 9.0862 4.14822 9.0792 4.16769L8.87607 4.75051C8.74951 5.11613 8.5167 5.48957 8.18701 5.85676C8.16514 5.88019 8.14014 5.88644 8.12295 5.88801C8.10576 5.88957 8.0792 5.88644 8.05576 5.86457C8.03389 5.84582 8.02295 5.81769 8.02451 5.78957C8.08232 4.84894 7.80108 3.78801 7.18545 2.63332C6.67608 1.67394 5.96826 0.925506 5.08389 0.403631L4.43857 0.0239439C4.3542 -0.0260561 4.24639 0.0395688 4.25107 0.138006L4.28545 0.888006C4.30889 1.40051 4.24951 1.85363 4.10889 2.23019C3.93701 2.69113 3.69014 3.11926 3.37451 3.50363C3.15486 3.77076 2.9059 4.01238 2.63232 4.22394C1.97343 4.73045 1.43766 5.37947 1.06514 6.12238C0.693533 6.87178 0.499965 7.69685 0.499512 8.53332C0.499512 9.27082 0.644824 9.98488 0.932324 10.6583C1.20993 11.3067 1.61054 11.8952 2.11201 12.3911C2.61826 12.8911 3.20576 13.2849 3.86045 13.5583C4.53857 13.8427 5.25732 13.9864 5.99951 13.9864C6.7417 13.9864 7.46045 13.8427 8.13858 13.5599C8.79165 13.288 9.38552 12.8916 9.88701 12.3927C10.3933 11.8927 10.7901 11.3083 11.0667 10.6599C11.3538 9.98829 11.501 9.26525 11.4995 8.53488C11.4995 7.77238 11.3433 7.03176 11.0323 6.33332ZM9.14014 11.6349C8.30107 12.4661 7.18701 12.9224 5.99951 12.9224C4.81201 12.9224 3.69795 12.4661 2.85889 11.6349C2.02295 10.8052 1.56201 9.70519 1.56201 8.53488C1.56201 7.85519 1.71514 7.20363 2.0167 6.59738C2.31045 6.00519 2.74795 5.47551 3.2792 5.06769C3.61801 4.80862 3.92531 4.51076 4.19482 4.18019C4.58545 3.70363 4.8917 3.17238 5.1042 2.60207C5.19137 2.36682 5.2547 2.12341 5.29326 1.87551C5.66982 2.22238 5.98545 2.64113 6.24951 3.13176C6.77139 4.10988 7.01201 4.98019 6.96514 5.72082C6.95394 5.89525 6.98243 6.06995 7.04846 6.23179C7.11449 6.39363 7.21636 6.53839 7.34639 6.65519C7.45907 6.75698 7.59086 6.83537 7.7341 6.8858C7.87733 6.93623 8.02916 6.95769 8.18076 6.94894C8.48857 6.93332 8.77139 6.79738 8.97764 6.56769C9.18545 6.33488 9.36514 6.09738 9.51514 5.85519C9.73389 6.13488 9.9167 6.43957 10.062 6.76769C10.3105 7.32707 10.437 7.92238 10.437 8.53488C10.437 9.70519 9.97608 10.8068 9.14014 11.6349Z" fill="#00334E"/>
</svg>
