<svg width="1500" height="1000" viewBox="0 0 1500 1000" fill="none" xmlns="http://www.w3.org/2000/svg">
    <path d="M1148.26 -1067.38L1032.02 -1296.6C1024.58 -1311.68 1013.74 -1324.88 1000.1 -1335.46C980.506 -1349.38 956.102 -1357.26 929.847 -1358.14C903.593 -1359.02 876.615 -1352.86 852.187 -1340.41L742.847 -1284.96C726.491 -1276.88 711.638 -1266.12 699.138 -1253.32C686.637 -1240.52 676.733 -1225.91 669.992 -1210.34C663.251 -1194.78 659.804 -1178.55 659.848 -1162.58C659.893 -1146.62 663.428 -1131.23 670.251 -1117.31L851.839 -759.215C824.648 -764.215 796.869 -767.476 768.693 -768.975C702.988 -777.073 636.21 -781.193 568.777 -781.309C403.314 -777.339 236.285 -731.129 86.5987 -647.911C-209.833 -497.59 -403.627 -324.374 -494.785 -128.263C-507.4 -102.132 -517.956 -75.4308 -526.366 -48.3826C-598.132 178.741 -557.847 442.505 -405.511 742.91L-394.829 763.974C-166.919 1167.63 335.898 971.326 705.792 789.983L757.303 763.861C581.782 843.003 429.848 872.28 301.082 850.865C155.769 826.938 39.9664 729.892 -46.3246 559.727C-132.616 389.562 -146.365 241.977 -87.5724 116.97C-29.1988 -8.86188 100.974 -122.815 302.946 -224.889C733.501 -443.224 1031.1 -394.062 1195.75 -77.4025L1160.57 -146.79C1085.07 -283.201 1038.98 -434.076 1024.44 -592.32C1018.45 -692.432 1031.95 -795.031 1064.34 -895.534C1075.57 -929.91 1089.65 -963.783 1106.44 -996.843C1117.08 -1018.14 1128.92 -1039.04 1141.88 -1059.47L1146.59 -1067.05" fill="white"/>
    <path d="M1147.26 -1068.38L1142.55 -1060.8C1129.58 -1040.37 1117.75 -1019.46 1107.11 -998.17C1090.31 -965.109 1076.24 -931.236 1065.01 -896.861C1032.62 -796.357 1019.11 -693.758 1025.11 -593.646C1038.69 -435.256 1083.89 -284.096 1158.6 -147.297L1197.55 -70.475C1283.01 98.0381 1291.68 245.255 1226.17 378.689C1160.65 512.124 1024.97 627.66 821.353 730.913L705.696 789.563C335.383 970.08 -167.643 1165.97 -395.83 762.974L-362.738 828.232L-341.458 864.172L-335.593 875.736L-310.275 914.821L-306.924 921.429L-279.663 959.528L-278.406 962.006C-174.179 1118.25 -17.8292 1237.4 171.634 1304.94C413.321 1379.17 701.991 1330.4 1040.7 1158.64L1131.09 1112.81C1415.96 951.735 1597.35 763.695 1668.86 549.332C1689.78 486.733 1702.61 423.049 1707.07 359.646C1715.46 175.034 1679.78 -3.81431 1602.46 -164.691L1144.83 -1067.14L1147.26 -1068.38Z" fill="#F0F2F1"/>
    <ellipse cx="1489.39" cy="876" rx="281" ry="219" fill="#F0F2F1"/>
</svg>
